# xmcd
#
# Track frame offsets:
#	150
#	13513
#	26861
#	40608
#	54285
#	67950
#	79095
#	93017
#	108123
#	121134
#	135839
#	148411
#	162471
#	176898
#
# Disc length: 2524 seconds
#
# Revision: 0
# Processed by: cddbd v1.4PL0 Copyright (c) Steve Scherf et al.
# Submitted via: EasyCDDAExtractor 4.6.0.1
#
DISCID=ad09da0e
DTITLE=Billy Holiday - Lady Day 2
DYEAR=1900
DGENRE=Blues
TTITLE0=Summertime
TTITLE1=I Must Have That Man
TTITLE2=They Can't Take That Away From me
TTITLE3=Getting Some Fun Out Of Life
TTITLE4=My Man
TTITLE5=Havin' Myself A Time
TTITLE6=Long Gone Blues
TTITLE7=Yesterdays
TTITLE8=You Go To My Head
TTITLE9=Yours And Mine
TTITLE10=I Can't Get Started
TTITLE11=More Than You Know
TTITLE12=Fine And Mellow
TTITLE13=Sugar (That Sugar Baby O' Mine)
EXTD=
EXTT0=
EXTT1=
EXTT2=
EXTT3=
EXTT4=
EXTT5=
EXTT6=
EXTT7=
EXTT8=
EXTT9=
EXTT10=
EXTT11=
EXTT12=
EXTT13=
PLAYORDER=
